<?xml version="1.0" standalone="no"?>
<!DOCTYPE svg PUBLIC "-//W3C//DTD SVG 20010904//EN"
 "http://www.w3.org/TR/2001/REC-SVG-20010904/DTD/svg10.dtd">
<svg version="1.0" xmlns="http://www.w3.org/2000/svg"
 width="700.000000pt" height="700.000000pt" viewBox="0 0 700.000000 700.000000"
 preserveAspectRatio="xMidYMid meet">
<metadata>
Created by potrace 1.14, written by Peter Selinger 2001-2017
</metadata>
<g transform="translate(0.000000,700.000000) scale(0.100000,-0.100000)"
fill="#000000" stroke="none">
<path d="M1518 6990 c-299 -51 -559 -280 -647 -570 -32 -104 -38 -185 -36
-494 2 -230 6 -307 19 -369 64 -295 257 -615 570 -944 179 -188 371 -367 616
-574 30 -26 105 -89 165 -140 61 -52 140 -119 177 -149 119 -100 164 -196 139
-302 -18 -81 -61 -132 -228 -273 -85 -71 -168 -141 -183 -155 -16 -14 -51 -43
-77 -65 -57 -48 -285 -249 -323 -285 -89 -84 -224 -217 -280 -276 -341 -358
-539 -698 -584 -1004 -13 -89 -15 -646 -2 -705 73 -330 264 -547 576 -651 l85
-29 1965 -2 c1333 -2 1981 1 2015 8 164 34 312 109 423 214 127 119 225 306
248 468 24 175 -3 270 -100 343 -166 126 -407 26 -432 -179 -11 -92 -15 -109
-29 -143 -29 -70 -95 -130 -170 -154 -59 -19 -3791 -19 -3850 0 -78 25 -135
77 -171 154 -22 47 -23 60 -24 306 -1 265 5 323 42 420 118 307 457 677 1168
1270 229 192 258 219 326 310 156 208 201 506 113 748 -48 133 -133 258 -240
352 -34 30 -69 62 -78 70 -9 8 -33 28 -54 43 -21 16 -47 38 -60 50 -12 12 -44
40 -72 62 -27 22 -56 47 -65 55 -9 8 -38 34 -65 57 -28 23 -61 51 -75 63 -14
12 -38 33 -55 47 -190 164 -440 412 -560 553 -85 102 -195 252 -195 268 0 6
-4 12 -8 14 -14 6 -80 151 -101 222 -18 61 -20 97 -20 340 l0 271 30 62 c32
68 92 120 164 143 32 11 408 13 1925 13 1730 0 1889 -1 1935 -16 60 -20 123
-76 156 -137 24 -44 24 -49 24 -325 0 -154 -3 -296 -7 -315 -32 -160 -171
-387 -373 -610 -72 -80 -288 -293 -380 -375 -49 -44 -96 -87 -104 -95 -9 -8
-61 -53 -116 -99 -55 -46 -102 -87 -105 -90 -3 -3 -59 -51 -125 -106 -170
-141 -172 -143 -248 -220 -215 -218 -289 -549 -186 -835 29 -78 84 -175 139
-245 52 -65 57 -70 200 -190 52 -44 97 -82 100 -85 3 -3 46 -39 95 -80 321
-267 560 -488 728 -673 73 -81 135 -110 232 -108 99 1 187 58 233 151 25 48
29 69 28 122 -4 112 -36 159 -269 390 -53 53 -136 132 -184 175 -47 43 -95 87
-107 98 -12 11 -50 45 -86 75 -36 30 -70 60 -76 65 -14 13 -69 60 -279 236
-201 170 -208 178 -236 249 -25 65 -22 135 10 202 30 64 -1 36 416 389 734
622 1067 1024 1203 1449 39 122 45 186 47 490 2 362 -9 439 -83 600 -75 164
-260 335 -434 402 -144 56 4 52 -2123 54 -1078 1 -1981 -2 -2007 -6z"/>
<path d="M3380 2511 c-30 -10 -70 -25 -87 -34 -29 -15 -132 -97 -203 -160 -14
-13 -88 -77 -165 -142 -77 -66 -142 -122 -145 -125 -3 -3 -61 -54 -130 -115
-69 -60 -143 -126 -165 -146 -22 -20 -56 -51 -75 -69 -124 -112 -225 -220
-242 -258 -51 -113 -2 -244 112 -304 l45 -23 1150 0 c633 -1 1170 3 1195 7
136 25 219 188 161 320 -25 55 -108 140 -356 363 -149 134 -159 143 -325 285
-80 69 -147 127 -150 130 -3 3 -34 30 -70 60 -36 30 -74 63 -85 73 -56 52
-141 108 -193 128 -77 29 -197 34 -272 10z"/>
</g>
</svg>
